M48
;Layer_Color=9474304
;FILE_FORMAT=4:4
METRIC,LZ
;TYPE=PLATED
T01F00S00C0.7112
T02F00S00C1.0000
T03F00S00C1.9050
%
T01
X0123698Y0061214
X0122682Y0071501
X0124333Y0072771
X0126111Y0071374
X0129413Y0072644
X0131826Y0074803
X0127254Y0077089
X0122428Y007747
X0107442Y0078105
X009525Y0078232
X0097536Y0063119
X0084074Y0063246
X0083439Y0070104
X0081026Y0072771
X0078486Y006604
X0071628Y0064897
X0069596Y0065913
X0071755Y0075946
X0075311Y0079756
X0074168Y0086868
X007747Y0087503
X00797747Y00873948
X0082677Y0089154
X0094742Y0098806
X0107304Y0099187
X0114808Y0089027
X011303Y0081407
X0122174Y008001
X0121031Y0086614
X0123952Y0087376
X0127381Y0087884
X0127635Y0090932
X0130175Y0095758
X0131572Y0082042
X0122174Y0103759
X0119507Y0102489
T02
X0069325Y0100604
Y0103104
T03
X006985Y0061341
X0130429Y0103378
M30
