G04*
G04 #@! TF.GenerationSoftware,Altium Limited,Altium Designer,25.0.2 (28)*
G04*
G04 Layer_Color=8421504*
%FSLAX44Y44*%
%MOMM*%
G71*
G04*
G04 #@! TF.SameCoordinates,877775E4-4AF8-4732-A6CF-0C93CC7184C8*
G04*
G04*
G04 #@! TF.FilePolarity,Positive*
G04*
G01*
G75*
%ADD16R,2.2000X2.8000*%
G04:AMPARAMS|DCode=17|XSize=0.6mm|YSize=1.45mm|CornerRadius=0.051mm|HoleSize=0mm|Usage=FLASHONLY|Rotation=0.000|XOffset=0mm|YOffset=0mm|HoleType=Round|Shape=RoundedRectangle|*
%AMROUNDEDRECTD17*
21,1,0.6000,1.3480,0,0,0.0*
21,1,0.4980,1.4500,0,0,0.0*
1,1,0.1020,0.2490,-0.6740*
1,1,0.1020,-0.2490,-0.6740*
1,1,0.1020,-0.2490,0.6740*
1,1,0.1020,0.2490,0.6740*
%
%ADD17ROUNDEDRECTD17*%
%ADD18R,1.1500X1.8000*%
%ADD19O,0.6000X2.1500*%
G04:AMPARAMS|DCode=20|XSize=0.6mm|YSize=1.65mm|CornerRadius=0.051mm|HoleSize=0mm|Usage=FLASHONLY|Rotation=180.000|XOffset=0mm|YOffset=0mm|HoleType=Round|Shape=RoundedRectangle|*
%AMROUNDEDRECTD20*
21,1,0.6000,1.5480,0,0,180.0*
21,1,0.4980,1.6500,0,0,180.0*
1,1,0.1020,-0.2490,0.7740*
1,1,0.1020,0.2490,0.7740*
1,1,0.1020,0.2490,-0.7740*
1,1,0.1020,-0.2490,-0.7740*
%
%ADD20ROUNDEDRECTD20*%
%ADD21R,1.8000X1.1500*%
%ADD22R,1.4000X2.6000*%
D16*
X922020Y676470D02*
D03*
Y628470D02*
D03*
X1078230Y627200D02*
D03*
Y675200D02*
D03*
D17*
X1289050Y692040D02*
D03*
X1276350D02*
D03*
X1263650D02*
D03*
X1250950D02*
D03*
X1238250D02*
D03*
X1225550D02*
D03*
X1212850D02*
D03*
X1289050Y637540D02*
D03*
X1276350D02*
D03*
X1263650D02*
D03*
X1250950D02*
D03*
X1238250D02*
D03*
X1225550D02*
D03*
X1212850D02*
D03*
X746760Y629340D02*
D03*
X759460D02*
D03*
X772160D02*
D03*
X784860D02*
D03*
X797560D02*
D03*
X810260D02*
D03*
X822960D02*
D03*
X746760Y683840D02*
D03*
X759460D02*
D03*
X772160D02*
D03*
X784860D02*
D03*
X797560D02*
D03*
X810260D02*
D03*
X822960D02*
D03*
D18*
X726200Y681990D02*
D03*
X696200D02*
D03*
X705590Y709930D02*
D03*
X734590D02*
D03*
X757660D02*
D03*
X786660D02*
D03*
X1287540Y612140D02*
D03*
X1257540D02*
D03*
X1240550Y845820D02*
D03*
X1210550D02*
D03*
X1228330Y897890D02*
D03*
X1258330D02*
D03*
X826530Y603250D02*
D03*
X796530D02*
D03*
X777000Y845820D02*
D03*
X747000D02*
D03*
X763510Y895350D02*
D03*
X793510D02*
D03*
D19*
X1295400Y999200D02*
D03*
X1282700D02*
D03*
X1270000D02*
D03*
X1257300D02*
D03*
X1244600D02*
D03*
X1231900D02*
D03*
X1219200D02*
D03*
X1206500D02*
D03*
X1295400Y931200D02*
D03*
X1282700D02*
D03*
X1270000D02*
D03*
X1257300D02*
D03*
X1244600D02*
D03*
X1231900D02*
D03*
X1219200D02*
D03*
X1206500D02*
D03*
X829310Y991870D02*
D03*
X816610D02*
D03*
X803910D02*
D03*
X791210D02*
D03*
X778510D02*
D03*
X765810D02*
D03*
X753110D02*
D03*
X740410D02*
D03*
X829310Y923870D02*
D03*
X816610D02*
D03*
X803910D02*
D03*
X791210D02*
D03*
X778510D02*
D03*
X765810D02*
D03*
X753110D02*
D03*
X740410D02*
D03*
D20*
X1209040Y747340D02*
D03*
X1221740D02*
D03*
X1234440D02*
D03*
X1247140D02*
D03*
X1259840D02*
D03*
X1272540D02*
D03*
X1285240D02*
D03*
X1297940D02*
D03*
X1209040Y819840D02*
D03*
X1221740D02*
D03*
X1234440D02*
D03*
X1247140D02*
D03*
X1259840D02*
D03*
X1272540D02*
D03*
X1285240D02*
D03*
X1297940D02*
D03*
X739140Y749880D02*
D03*
X751840D02*
D03*
X764540D02*
D03*
X777240D02*
D03*
X789940D02*
D03*
X802640D02*
D03*
X815340D02*
D03*
X828040D02*
D03*
X739140Y822380D02*
D03*
X751840D02*
D03*
X764540D02*
D03*
X777240D02*
D03*
X789940D02*
D03*
X802640D02*
D03*
X815340D02*
D03*
X828040D02*
D03*
D21*
X1024890Y1001500D02*
D03*
Y1030500D02*
D03*
X1051560Y1001500D02*
D03*
Y1030500D02*
D03*
X1026160Y779040D02*
D03*
Y750040D02*
D03*
X1052830Y779040D02*
D03*
Y750040D02*
D03*
X1096010Y778510D02*
D03*
Y749510D02*
D03*
X1122680Y995150D02*
D03*
Y1024150D02*
D03*
X1097280Y995150D02*
D03*
Y1024150D02*
D03*
X894080Y997690D02*
D03*
Y1026690D02*
D03*
X927100Y999700D02*
D03*
Y1028700D02*
D03*
X969010Y1001500D02*
D03*
Y1030500D02*
D03*
X995680Y1001500D02*
D03*
Y1030500D02*
D03*
X974090Y777770D02*
D03*
Y748770D02*
D03*
X930910Y778510D02*
D03*
Y749510D02*
D03*
X902970Y778510D02*
D03*
Y749510D02*
D03*
X966470Y652250D02*
D03*
Y681250D02*
D03*
X1028700Y652250D02*
D03*
Y681250D02*
D03*
D22*
X909470Y809930D02*
D03*
X928470D02*
D03*
X947470D02*
D03*
X966470D02*
D03*
X985470D02*
D03*
Y963930D02*
D03*
X966470D02*
D03*
X947470D02*
D03*
X928470D02*
D03*
X909470D02*
D03*
X1033780Y809930D02*
D03*
X1052780D02*
D03*
X1071780D02*
D03*
X1090780D02*
D03*
X1109780D02*
D03*
Y963930D02*
D03*
X1090780D02*
D03*
X1071780D02*
D03*
X1052780D02*
D03*
X1033780D02*
D03*
M02*
