G04*
G04 #@! TF.GenerationSoftware,Altium Limited,Altium Designer,25.0.2 (28)*
G04*
G04 Layer_Physical_Order=2*
G04 Layer_Color=16711680*
%FSLAX44Y44*%
%MOMM*%
G71*
G04*
G04 #@! TF.SameCoordinates,877775E4-4AF8-4732-A6CF-0C93CC7184C8*
G04*
G04*
G04 #@! TF.FilePolarity,Positive*
G04*
G01*
G75*
%ADD15C,0.2540*%
%ADD31C,1.5500*%
%ADD32R,1.5500X1.5500*%
%ADD34C,2.5400*%
%ADD35C,1.2700*%
G36*
X1332230Y590550D02*
X672358D01*
X670565Y592349D01*
X671825Y1051034D01*
X673100Y1051560D01*
X1332230D01*
Y590550D01*
D02*
G37*
%LPC*%
G36*
X1305791Y1049020D02*
X1305560D01*
Y1035050D01*
X1319530D01*
Y1035281D01*
X1318944Y1038225D01*
X1317796Y1040999D01*
X1316128Y1043495D01*
X1314005Y1045618D01*
X1311509Y1047286D01*
X1308735Y1048434D01*
X1305791Y1049020D01*
D02*
G37*
G36*
X1303020D02*
X1302789D01*
X1299845Y1048434D01*
X1297071Y1047286D01*
X1294575Y1045618D01*
X1292452Y1043495D01*
X1290784Y1040999D01*
X1289636Y1038225D01*
X1289050Y1035281D01*
Y1035050D01*
X1303020D01*
Y1049020D01*
D02*
G37*
G36*
X1222910Y1046480D02*
X1220570D01*
X1218309Y1045874D01*
X1216281Y1044704D01*
X1214626Y1043049D01*
X1213717Y1041475D01*
X1207770D01*
X1206283Y1041179D01*
X1205023Y1040337D01*
X1197996Y1033310D01*
X1196240Y1033780D01*
X1193900D01*
X1191639Y1033174D01*
X1189611Y1032004D01*
X1187956Y1030349D01*
X1186786Y1028321D01*
X1186180Y1026060D01*
Y1023720D01*
X1186786Y1021459D01*
X1187956Y1019431D01*
X1189611Y1017776D01*
X1191639Y1016606D01*
X1193900Y1016000D01*
X1196240D01*
X1198501Y1016606D01*
X1200529Y1017776D01*
X1202184Y1019431D01*
X1203354Y1021459D01*
X1203960Y1023720D01*
Y1026060D01*
X1203490Y1027816D01*
X1209379Y1033705D01*
X1213717D01*
X1214626Y1032131D01*
X1216281Y1030476D01*
X1218309Y1029306D01*
X1220570Y1028700D01*
X1222910D01*
X1225171Y1029306D01*
X1227199Y1030476D01*
X1228854Y1032131D01*
X1230024Y1034159D01*
X1230630Y1036420D01*
Y1038760D01*
X1230024Y1041021D01*
X1228854Y1043049D01*
X1227199Y1044704D01*
X1225171Y1045874D01*
X1222910Y1046480D01*
D02*
G37*
G36*
X694605Y1041330D02*
X691895D01*
X689278Y1040629D01*
X686932Y1039274D01*
X685016Y1037358D01*
X683661Y1035012D01*
X682960Y1032395D01*
Y1029685D01*
X683661Y1027068D01*
X685016Y1024722D01*
X686932Y1022806D01*
X689278Y1021451D01*
X691895Y1020750D01*
X694605D01*
X697222Y1021451D01*
X699568Y1022806D01*
X701484Y1024722D01*
X702839Y1027068D01*
X703540Y1029685D01*
Y1032395D01*
X702839Y1035012D01*
X701484Y1037358D01*
X699568Y1039274D01*
X697222Y1040629D01*
X694605Y1041330D01*
D02*
G37*
G36*
X1319530Y1032510D02*
X1305560D01*
Y1018540D01*
X1305791D01*
X1308735Y1019126D01*
X1311509Y1020275D01*
X1314005Y1021942D01*
X1316128Y1024065D01*
X1317796Y1026561D01*
X1318944Y1029335D01*
X1319530Y1032279D01*
Y1032510D01*
D02*
G37*
G36*
X1303020D02*
X1289050D01*
Y1032279D01*
X1289636Y1029335D01*
X1290784Y1026561D01*
X1292452Y1024065D01*
X1294575Y1021942D01*
X1297071Y1020275D01*
X1299845Y1019126D01*
X1302789Y1018540D01*
X1303020D01*
Y1032510D01*
D02*
G37*
G36*
X703540Y1016330D02*
X694520D01*
Y1007310D01*
X703540D01*
Y1016330D01*
D02*
G37*
G36*
X691980D02*
X682960D01*
Y1007310D01*
X691980D01*
Y1016330D01*
D02*
G37*
G36*
X703540Y1004770D02*
X694520D01*
Y995750D01*
X703540D01*
Y1004770D01*
D02*
G37*
G36*
X691980D02*
X682960D01*
Y995750D01*
X691980D01*
Y1004770D01*
D02*
G37*
G36*
X1074310Y1000733D02*
Y993140D01*
X1081903D01*
X1081324Y995301D01*
X1080154Y997329D01*
X1078499Y998984D01*
X1076471Y1000154D01*
X1074310Y1000733D01*
D02*
G37*
G36*
X1071770D02*
X1069609Y1000154D01*
X1067581Y998984D01*
X1065926Y997329D01*
X1064756Y995301D01*
X1064177Y993140D01*
X1071770D01*
Y1000733D01*
D02*
G37*
G36*
X948690Y996923D02*
Y989330D01*
X956283D01*
X955704Y991491D01*
X954534Y993519D01*
X952879Y995174D01*
X950851Y996344D01*
X948690Y996923D01*
D02*
G37*
G36*
X946150D02*
X943989Y996344D01*
X941961Y995174D01*
X940306Y993519D01*
X939136Y991491D01*
X938557Y989330D01*
X946150D01*
Y996923D01*
D02*
G37*
G36*
X1081903Y990600D02*
X1074310D01*
Y983007D01*
X1076471Y983586D01*
X1078499Y984756D01*
X1080154Y986411D01*
X1081324Y988439D01*
X1081903Y990600D01*
D02*
G37*
G36*
X1071770D02*
X1064177D01*
X1064756Y988439D01*
X1065926Y986411D01*
X1067581Y984756D01*
X1069609Y983586D01*
X1071770Y983007D01*
Y990600D01*
D02*
G37*
G36*
X956283Y986790D02*
X948690D01*
Y979197D01*
X950851Y979776D01*
X952879Y980946D01*
X954534Y982601D01*
X955704Y984629D01*
X956283Y986790D01*
D02*
G37*
G36*
X946150D02*
X938557D01*
X939136Y984629D01*
X940306Y982601D01*
X941961Y980946D01*
X943989Y979776D01*
X946150Y979197D01*
Y986790D01*
D02*
G37*
G36*
X828040Y900403D02*
Y892810D01*
X835633D01*
X835054Y894971D01*
X833884Y896999D01*
X832229Y898654D01*
X830201Y899824D01*
X828040Y900403D01*
D02*
G37*
G36*
X825500D02*
X823339Y899824D01*
X821311Y898654D01*
X819656Y896999D01*
X818486Y894971D01*
X817907Y892810D01*
X825500D01*
Y900403D01*
D02*
G37*
G36*
X835633Y890270D02*
X828040D01*
Y882677D01*
X830201Y883256D01*
X832229Y884426D01*
X833884Y886081D01*
X835054Y888109D01*
X835633Y890270D01*
D02*
G37*
G36*
X825500D02*
X817907D01*
X818486Y888109D01*
X819656Y886081D01*
X821311Y884426D01*
X823339Y883256D01*
X825500Y882677D01*
Y890270D01*
D02*
G37*
G36*
X1272540Y887703D02*
X1270379Y887124D01*
X1268351Y885954D01*
X1266696Y884299D01*
X1265526Y882271D01*
X1264947Y880110D01*
X1272540D01*
Y887703D01*
D02*
G37*
G36*
X775970Y883893D02*
Y876300D01*
X783563D01*
X782984Y878461D01*
X781814Y880489D01*
X780159Y882144D01*
X778131Y883314D01*
X775970Y883893D01*
D02*
G37*
G36*
X773430D02*
X771269Y883314D01*
X769241Y882144D01*
X767586Y880489D01*
X766416Y878461D01*
X765837Y876300D01*
X773430D01*
Y883893D01*
D02*
G37*
G36*
X1272540Y877570D02*
X1264947D01*
X1265526Y875409D01*
X1266696Y873381D01*
X1268351Y871726D01*
X1270379Y870556D01*
X1272540Y869977D01*
Y877570D01*
D02*
G37*
G36*
X742950Y877543D02*
Y869950D01*
X750543D01*
X749964Y872111D01*
X748794Y874139D01*
X747139Y875794D01*
X745111Y876964D01*
X742950Y877543D01*
D02*
G37*
G36*
X740410D02*
X738249Y876964D01*
X736221Y875794D01*
X734566Y874139D01*
X733396Y872111D01*
X732817Y869950D01*
X740410D01*
Y877543D01*
D02*
G37*
G36*
X783563Y873760D02*
X775970D01*
Y866167D01*
X778131Y866746D01*
X780159Y867916D01*
X781814Y869571D01*
X782984Y871599D01*
X783563Y873760D01*
D02*
G37*
G36*
X773430D02*
X765837D01*
X766416Y871599D01*
X767586Y869571D01*
X769241Y867916D01*
X771269Y866746D01*
X773430Y866167D01*
Y873760D01*
D02*
G37*
G36*
X798918Y882838D02*
X796577D01*
X794316Y882232D01*
X792289Y881061D01*
X790634Y879406D01*
X789463Y877379D01*
X788857Y875118D01*
Y872777D01*
X789328Y871022D01*
X714803Y796497D01*
X713961Y795237D01*
X713665Y793750D01*
Y767483D01*
X712091Y766574D01*
X710436Y764919D01*
X709266Y762891D01*
X708660Y760630D01*
Y758290D01*
X709266Y756029D01*
X710436Y754001D01*
X712091Y752346D01*
X714119Y751176D01*
X716380Y750570D01*
X718720D01*
X720981Y751176D01*
X723009Y752346D01*
X724664Y754001D01*
X725834Y756029D01*
X726440Y758290D01*
Y760630D01*
X725834Y762891D01*
X724664Y764919D01*
X723009Y766574D01*
X721435Y767483D01*
Y792141D01*
X794822Y865528D01*
X796577Y865058D01*
X798918D01*
X801179Y865663D01*
X803206Y866834D01*
X804861Y868489D01*
X806032Y870516D01*
X806637Y872777D01*
Y875118D01*
X806032Y877379D01*
X804861Y879406D01*
X803206Y881061D01*
X801179Y882232D01*
X798918Y882838D01*
D02*
G37*
G36*
X1149250Y899160D02*
X1146910D01*
X1144649Y898554D01*
X1142621Y897384D01*
X1140966Y895729D01*
X1139796Y893701D01*
X1139190Y891440D01*
Y889100D01*
X1139796Y886839D01*
X1140966Y884811D01*
X1142621Y883156D01*
X1144649Y881986D01*
X1146910Y881380D01*
X1149250D01*
X1151006Y881850D01*
X1169463Y863393D01*
X1170723Y862551D01*
X1172210Y862255D01*
X1202288D01*
X1203196Y860681D01*
X1204851Y859026D01*
X1206879Y857856D01*
X1209140Y857250D01*
X1211480D01*
X1213741Y857856D01*
X1215769Y859026D01*
X1217424Y860681D01*
X1218333Y862255D01*
X1229151D01*
X1230637Y862551D01*
X1231898Y863393D01*
X1234752Y866247D01*
X1236089Y865476D01*
X1238350Y864870D01*
X1240690D01*
X1242951Y865476D01*
X1244979Y866646D01*
X1246634Y868301D01*
X1247804Y870329D01*
X1248410Y872590D01*
Y874930D01*
X1247804Y877191D01*
X1246634Y879219D01*
X1244979Y880874D01*
X1242951Y882044D01*
X1240690Y882650D01*
X1238350D01*
X1236089Y882044D01*
X1234061Y880874D01*
X1232406Y879219D01*
X1231236Y877191D01*
X1230630Y874930D01*
Y873113D01*
X1227542Y870025D01*
X1218333D01*
X1217424Y871599D01*
X1215769Y873254D01*
X1213741Y874424D01*
X1211480Y875030D01*
X1209140D01*
X1206879Y874424D01*
X1204851Y873254D01*
X1203196Y871599D01*
X1202288Y870025D01*
X1173819D01*
X1156500Y887344D01*
X1156970Y889100D01*
Y891440D01*
X1156364Y893701D01*
X1155194Y895729D01*
X1153539Y897384D01*
X1151511Y898554D01*
X1149250Y899160D01*
D02*
G37*
G36*
X750543Y867410D02*
X742950D01*
Y859817D01*
X745111Y860396D01*
X747139Y861566D01*
X748794Y863221D01*
X749964Y865249D01*
X750543Y867410D01*
D02*
G37*
G36*
X740410D02*
X732817D01*
X733396Y865249D01*
X734566Y863221D01*
X736221Y861566D01*
X738249Y860396D01*
X740410Y859817D01*
Y867410D01*
D02*
G37*
G36*
X1316990Y829283D02*
Y821690D01*
X1324583D01*
X1324004Y823851D01*
X1322834Y825879D01*
X1321179Y827534D01*
X1319151Y828704D01*
X1316990Y829283D01*
D02*
G37*
G36*
X1131570Y822933D02*
Y815340D01*
X1139163D01*
X1138584Y817501D01*
X1137414Y819529D01*
X1135759Y821184D01*
X1133731Y822354D01*
X1131570Y822933D01*
D02*
G37*
G36*
X1129030D02*
X1126869Y822354D01*
X1124841Y821184D01*
X1123186Y819529D01*
X1122016Y817501D01*
X1121437Y815340D01*
X1129030D01*
Y822933D01*
D02*
G37*
G36*
X1324583Y819150D02*
X1316990D01*
Y811557D01*
X1319151Y812136D01*
X1321179Y813306D01*
X1322834Y814961D01*
X1324004Y816989D01*
X1324583Y819150D01*
D02*
G37*
G36*
X1302920Y966470D02*
X1300580D01*
X1298319Y965864D01*
X1296291Y964694D01*
X1294636Y963039D01*
X1293466Y961011D01*
X1292860Y958750D01*
Y956410D01*
X1293466Y954149D01*
X1294636Y952121D01*
X1296291Y950466D01*
X1297865Y949557D01*
Y801709D01*
X1275466Y779310D01*
X1273710Y779780D01*
X1271370D01*
X1269109Y779174D01*
X1267081Y778004D01*
X1265426Y776349D01*
X1264256Y774321D01*
X1263650Y772060D01*
Y769720D01*
X1264256Y767459D01*
X1265426Y765431D01*
X1267081Y763776D01*
X1269109Y762606D01*
X1271370Y762000D01*
X1273710D01*
X1275971Y762606D01*
X1277999Y763776D01*
X1279654Y765431D01*
X1280824Y767459D01*
X1281430Y769720D01*
Y772060D01*
X1280960Y773816D01*
X1304497Y797353D01*
X1305339Y798613D01*
X1305635Y800100D01*
Y815028D01*
X1308175Y815709D01*
X1308606Y814961D01*
X1310261Y813306D01*
X1312289Y812136D01*
X1314450Y811557D01*
Y820420D01*
Y829283D01*
X1312289Y828704D01*
X1310261Y827534D01*
X1308606Y825879D01*
X1308175Y825131D01*
X1305635Y825812D01*
Y949557D01*
X1307209Y950466D01*
X1308864Y952121D01*
X1310034Y954149D01*
X1310640Y956410D01*
Y958750D01*
X1310034Y961011D01*
X1308864Y963039D01*
X1307209Y964694D01*
X1305181Y965864D01*
X1302920Y966470D01*
D02*
G37*
G36*
X1139163Y812800D02*
X1131570D01*
Y805207D01*
X1133731Y805786D01*
X1135759Y806956D01*
X1137414Y808611D01*
X1138584Y810639D01*
X1139163Y812800D01*
D02*
G37*
G36*
X1129030D02*
X1121437D01*
X1122016Y810639D01*
X1123186Y808611D01*
X1124841Y806956D01*
X1126869Y805786D01*
X1129030Y805207D01*
Y812800D01*
D02*
G37*
G36*
X1222910Y808990D02*
X1220570D01*
X1218309Y808384D01*
X1216281Y807214D01*
X1214626Y805559D01*
X1213456Y803531D01*
X1213245Y802745D01*
X1211580D01*
X1210093Y802449D01*
X1208833Y801607D01*
X1208701Y801475D01*
X761115D01*
X760224Y803019D01*
X758569Y804674D01*
X756541Y805844D01*
X754280Y806450D01*
X751940D01*
X749679Y805844D01*
X747651Y804674D01*
X745996Y803019D01*
X744826Y800991D01*
X744220Y798730D01*
Y796390D01*
X744826Y794129D01*
X745996Y792101D01*
X747651Y790446D01*
X749679Y789276D01*
X751940Y788670D01*
X754280D01*
X756541Y789276D01*
X758569Y790446D01*
X760224Y792101D01*
X761150Y793705D01*
X948755D01*
X951229Y793544D01*
Y793544D01*
D01*
X951330Y791210D01*
X951187Y791172D01*
X949069Y790604D01*
X947041Y789434D01*
X945386Y787779D01*
X944216Y785751D01*
X943637Y783590D01*
X961363D01*
X960784Y785751D01*
X959614Y787779D01*
X957959Y789434D01*
X955931Y790604D01*
X953813Y791172D01*
X953670Y791210D01*
X953771Y793544D01*
X956245Y793705D01*
X1210310D01*
X1211796Y794001D01*
X1212162Y794246D01*
X1214626Y794641D01*
X1216281Y792986D01*
X1218309Y791816D01*
X1220570Y791210D01*
X1222910D01*
X1225171Y791816D01*
X1227199Y792986D01*
X1228854Y794641D01*
X1230024Y796669D01*
X1230630Y798930D01*
Y801270D01*
X1230024Y803531D01*
X1228854Y805559D01*
X1227199Y807214D01*
X1225171Y808384D01*
X1222910Y808990D01*
D02*
G37*
G36*
X1277520Y918210D02*
X1275180D01*
X1272919Y917604D01*
X1270891Y916434D01*
X1269236Y914779D01*
X1268066Y912751D01*
X1267460Y910490D01*
Y908150D01*
X1268066Y905889D01*
X1269236Y903861D01*
X1270891Y902206D01*
X1272465Y901298D01*
Y895046D01*
X1272761Y893560D01*
X1273603Y892299D01*
X1275749Y890154D01*
X1275289Y888704D01*
X1275080Y888417D01*
Y878840D01*
Y869977D01*
X1277241Y870556D01*
X1277545Y870731D01*
X1280085Y869265D01*
Y835999D01*
X1227206Y783120D01*
X1225450Y783590D01*
X1223110D01*
X1220849Y782984D01*
X1218821Y781814D01*
X1217166Y780159D01*
X1215996Y778131D01*
X1215390Y775870D01*
Y773530D01*
X1215996Y771269D01*
X1217166Y769241D01*
X1218821Y767586D01*
X1220849Y766416D01*
X1223110Y765810D01*
X1225450D01*
X1227711Y766416D01*
X1229739Y767586D01*
X1231394Y769241D01*
X1232564Y771269D01*
X1233170Y773530D01*
Y775870D01*
X1232700Y777626D01*
X1286717Y831643D01*
X1287559Y832903D01*
X1287855Y834390D01*
Y887426D01*
X1287559Y888913D01*
X1286717Y890173D01*
X1280235Y896655D01*
Y901298D01*
X1281809Y902206D01*
X1283464Y903861D01*
X1284634Y905889D01*
X1285240Y908150D01*
Y910490D01*
X1284634Y912751D01*
X1283464Y914779D01*
X1281809Y916434D01*
X1279781Y917604D01*
X1277520Y918210D01*
D02*
G37*
G36*
X1075690Y789913D02*
Y782320D01*
X1083283D01*
X1082704Y784481D01*
X1081534Y786509D01*
X1079879Y788164D01*
X1077851Y789334D01*
X1075690Y789913D01*
D02*
G37*
G36*
X1073150D02*
X1070989Y789334D01*
X1068961Y788164D01*
X1067306Y786509D01*
X1066136Y784481D01*
X1065557Y782320D01*
X1073150D01*
Y789913D01*
D02*
G37*
G36*
X961363Y781050D02*
X953770D01*
Y773457D01*
X955931Y774036D01*
X957959Y775206D01*
X959614Y776861D01*
X960784Y778889D01*
X961363Y781050D01*
D02*
G37*
G36*
X951230D02*
X943637D01*
X944216Y778889D01*
X945386Y776861D01*
X947041Y775206D01*
X949069Y774036D01*
X951230Y773457D01*
Y781050D01*
D02*
G37*
G36*
X1083283Y779780D02*
X1075690D01*
Y772187D01*
X1077851Y772766D01*
X1079879Y773936D01*
X1081534Y775591D01*
X1082704Y777619D01*
X1083283Y779780D01*
D02*
G37*
G36*
X1073150D02*
X1065557D01*
X1066136Y777619D01*
X1067306Y775591D01*
X1068961Y773936D01*
X1070989Y772766D01*
X1073150Y772187D01*
Y779780D01*
D02*
G37*
G36*
X1319530Y756893D02*
Y749300D01*
X1327123D01*
X1326544Y751461D01*
X1325374Y753489D01*
X1323719Y755144D01*
X1321691Y756314D01*
X1319530Y756893D01*
D02*
G37*
G36*
X1316990D02*
X1314829Y756314D01*
X1312801Y755144D01*
X1311146Y753489D01*
X1309976Y751461D01*
X1309397Y749300D01*
X1316990D01*
Y756893D01*
D02*
G37*
G36*
X1327123Y746760D02*
X1319530D01*
Y739167D01*
X1321691Y739746D01*
X1323719Y740916D01*
X1325374Y742571D01*
X1326544Y744599D01*
X1327123Y746760D01*
D02*
G37*
G36*
X1316990D02*
X1309397D01*
X1309976Y744599D01*
X1311146Y742571D01*
X1312801Y740916D01*
X1314829Y739746D01*
X1316990Y739167D01*
Y746760D01*
D02*
G37*
G36*
X1244600Y736573D02*
Y728980D01*
X1252193D01*
X1251614Y731141D01*
X1250444Y733169D01*
X1248789Y734824D01*
X1246761Y735994D01*
X1244600Y736573D01*
D02*
G37*
G36*
X1242060D02*
X1239899Y735994D01*
X1237871Y734824D01*
X1236216Y733169D01*
X1235046Y731141D01*
X1234467Y728980D01*
X1242060D01*
Y736573D01*
D02*
G37*
G36*
X811530D02*
Y728980D01*
X819123D01*
X818544Y731141D01*
X817374Y733169D01*
X815719Y734824D01*
X813691Y735994D01*
X811530Y736573D01*
D02*
G37*
G36*
X808990D02*
X806829Y735994D01*
X804801Y734824D01*
X803146Y733169D01*
X801976Y731141D01*
X801397Y728980D01*
X808990D01*
Y736573D01*
D02*
G37*
G36*
X1295300Y735330D02*
X1292960D01*
X1290699Y734724D01*
X1288671Y733554D01*
X1287016Y731899D01*
X1286107Y730325D01*
X1273810D01*
X1272323Y730029D01*
X1271063Y729187D01*
X1264036Y722160D01*
X1262280Y722630D01*
X1259940D01*
X1257679Y722024D01*
X1255651Y720854D01*
X1253996Y719199D01*
X1252826Y717171D01*
X1252220Y714910D01*
Y712570D01*
X1252826Y710309D01*
X1253996Y708281D01*
X1255651Y706626D01*
X1257679Y705456D01*
X1259940Y704850D01*
X1262280D01*
X1264541Y705456D01*
X1266569Y706626D01*
X1268224Y708281D01*
X1269394Y710309D01*
X1270000Y712570D01*
Y714910D01*
X1269530Y716666D01*
X1275419Y722555D01*
X1286107D01*
X1287016Y720981D01*
X1288671Y719326D01*
X1290699Y718156D01*
X1292960Y717550D01*
X1295300D01*
X1297561Y718156D01*
X1299589Y719326D01*
X1301244Y720981D01*
X1302414Y723009D01*
X1303020Y725270D01*
Y727610D01*
X1302414Y729871D01*
X1301244Y731899D01*
X1299589Y733554D01*
X1297561Y734724D01*
X1295300Y735330D01*
D02*
G37*
G36*
X1252193Y726440D02*
X1244600D01*
Y718847D01*
X1246761Y719426D01*
X1248789Y720596D01*
X1250444Y722251D01*
X1251614Y724279D01*
X1252193Y726440D01*
D02*
G37*
G36*
X1242060D02*
X1234467D01*
X1235046Y724279D01*
X1236216Y722251D01*
X1237871Y720596D01*
X1239899Y719426D01*
X1242060Y718847D01*
Y726440D01*
D02*
G37*
G36*
X819123D02*
X811530D01*
Y718847D01*
X813691Y719426D01*
X815719Y720596D01*
X817374Y722251D01*
X818544Y724279D01*
X819123Y726440D01*
D02*
G37*
G36*
X808990D02*
X801397D01*
X801976Y724279D01*
X803146Y722251D01*
X804801Y720596D01*
X806829Y719426D01*
X808990Y718847D01*
Y726440D01*
D02*
G37*
G36*
X1227990Y723900D02*
X1225650D01*
X1223389Y723294D01*
X1221361Y722124D01*
X1219706Y720469D01*
X1218798Y718895D01*
X828040D01*
X826553Y718599D01*
X825293Y717757D01*
X787180Y679644D01*
X786338Y678384D01*
X786043Y676897D01*
Y675226D01*
X784057Y673240D01*
X783215Y671980D01*
X782919Y670493D01*
Y669084D01*
X781429Y668684D01*
X779401Y667514D01*
X777746Y665859D01*
X776576Y663831D01*
X776485Y663492D01*
X773652Y662733D01*
X763079Y673307D01*
X761818Y674149D01*
X760332Y674445D01*
X736904D01*
X735417Y674149D01*
X734157Y673307D01*
X723865Y663015D01*
X703982D01*
X703074Y664589D01*
X701419Y666244D01*
X699391Y667414D01*
X697130Y668020D01*
X694790D01*
X692529Y667414D01*
X690501Y666244D01*
X688846Y664589D01*
X687676Y662561D01*
X687070Y660300D01*
Y657960D01*
X687676Y655699D01*
X688846Y653671D01*
X690501Y652016D01*
X692529Y650846D01*
X694790Y650240D01*
X697130D01*
X699391Y650846D01*
X701419Y652016D01*
X703074Y653671D01*
X703982Y655245D01*
X706705D01*
X708171Y652705D01*
X707996Y652401D01*
X707417Y650240D01*
X725143D01*
X724564Y652401D01*
X724389Y652705D01*
X725098Y654365D01*
X725816Y655313D01*
X726960Y655541D01*
X728221Y656383D01*
X738513Y666675D01*
X758723D01*
X777905Y647493D01*
X779165Y646651D01*
X780652Y646355D01*
X789068D01*
X790555Y646651D01*
X791815Y647493D01*
X815374Y671052D01*
X816216Y672312D01*
X816512Y673798D01*
Y677668D01*
X831464Y692620D01*
X833220Y692150D01*
X835560D01*
X837821Y692756D01*
X839849Y693926D01*
X841504Y695581D01*
X842674Y697609D01*
X843280Y699870D01*
Y702210D01*
X842674Y704471D01*
X841504Y706499D01*
X839849Y708154D01*
X839101Y708585D01*
X839782Y711125D01*
X1218798D01*
X1219706Y709551D01*
X1221361Y707896D01*
X1223389Y706726D01*
X1225650Y706120D01*
X1227990D01*
X1230251Y706726D01*
X1232279Y707896D01*
X1233934Y709551D01*
X1235104Y711579D01*
X1235710Y713840D01*
Y716180D01*
X1235104Y718441D01*
X1233934Y720469D01*
X1232279Y722124D01*
X1230251Y723294D01*
X1227990Y723900D01*
D02*
G37*
G36*
X725143Y647700D02*
X717550D01*
Y640107D01*
X719711Y640686D01*
X721739Y641856D01*
X723394Y643511D01*
X724564Y645539D01*
X725143Y647700D01*
D02*
G37*
G36*
X715010D02*
X707417D01*
X707996Y645539D01*
X709166Y643511D01*
X710821Y641856D01*
X712849Y640686D01*
X715010Y640107D01*
Y647700D01*
D02*
G37*
G36*
X842010Y641323D02*
Y633730D01*
X849603D01*
X849024Y635891D01*
X847854Y637919D01*
X846199Y639574D01*
X844171Y640744D01*
X842010Y641323D01*
D02*
G37*
G36*
X839470D02*
X837309Y640744D01*
X835281Y639574D01*
X833626Y637919D01*
X832456Y635891D01*
X831877Y633730D01*
X839470D01*
Y641323D01*
D02*
G37*
G36*
X976630Y640053D02*
Y632460D01*
X984223D01*
X983644Y634621D01*
X982474Y636649D01*
X980819Y638304D01*
X978791Y639474D01*
X976630Y640053D01*
D02*
G37*
G36*
X974090D02*
X971929Y639474D01*
X969901Y638304D01*
X968246Y636649D01*
X967076Y634621D01*
X966497Y632460D01*
X974090D01*
Y640053D01*
D02*
G37*
G36*
X849603Y631190D02*
X842010D01*
Y623597D01*
X844171Y624176D01*
X846199Y625346D01*
X847854Y627001D01*
X849024Y629029D01*
X849603Y631190D01*
D02*
G37*
G36*
X839470D02*
X831877D01*
X832456Y629029D01*
X833626Y627001D01*
X835281Y625346D01*
X837309Y624176D01*
X839470Y623597D01*
Y631190D01*
D02*
G37*
G36*
X984223Y629920D02*
X976630D01*
Y622327D01*
X978791Y622906D01*
X980819Y624076D01*
X982474Y625731D01*
X983644Y627759D01*
X984223Y629920D01*
D02*
G37*
G36*
X974090D02*
X966497D01*
X967076Y627759D01*
X968246Y625731D01*
X969901Y624076D01*
X971929Y622906D01*
X974090Y622327D01*
Y629920D01*
D02*
G37*
G36*
X700001Y628650D02*
X699770D01*
Y614680D01*
X713740D01*
Y614911D01*
X713154Y617855D01*
X712005Y620629D01*
X710338Y623125D01*
X708215Y625248D01*
X705719Y626916D01*
X702945Y628064D01*
X700001Y628650D01*
D02*
G37*
G36*
X697230D02*
X696999D01*
X694055Y628064D01*
X691281Y626916D01*
X688785Y625248D01*
X686662Y623125D01*
X684995Y620629D01*
X683846Y617855D01*
X683260Y614911D01*
Y614680D01*
X697230D01*
Y628650D01*
D02*
G37*
G36*
X1238250Y621003D02*
Y613410D01*
X1245843D01*
X1245264Y615571D01*
X1244094Y617599D01*
X1242439Y619254D01*
X1240411Y620424D01*
X1238250Y621003D01*
D02*
G37*
G36*
X1235710D02*
X1233549Y620424D01*
X1231521Y619254D01*
X1229866Y617599D01*
X1228696Y615571D01*
X1228117Y613410D01*
X1235710D01*
Y621003D01*
D02*
G37*
G36*
X1245843Y610870D02*
X1238250D01*
Y603277D01*
X1240411Y603856D01*
X1242439Y605026D01*
X1244094Y606681D01*
X1245264Y608709D01*
X1245843Y610870D01*
D02*
G37*
G36*
X1235710D02*
X1228117D01*
X1228696Y608709D01*
X1229866Y606681D01*
X1231521Y605026D01*
X1233549Y603856D01*
X1235710Y603277D01*
Y610870D01*
D02*
G37*
G36*
X713740Y612140D02*
X699770D01*
Y598170D01*
X700001D01*
X702945Y598756D01*
X705719Y599905D01*
X708215Y601572D01*
X710338Y603695D01*
X712005Y606191D01*
X713154Y608965D01*
X713740Y611909D01*
Y612140D01*
D02*
G37*
G36*
X697230D02*
X683260D01*
Y611909D01*
X683846Y608965D01*
X684995Y606191D01*
X686662Y603695D01*
X688785Y601572D01*
X691281Y599905D01*
X694055Y598756D01*
X696999Y598170D01*
X697230D01*
Y612140D01*
D02*
G37*
%LPD*%
G36*
X825930Y703814D02*
X825500Y702210D01*
Y699870D01*
X825970Y698114D01*
X809880Y682024D01*
X809038Y680763D01*
X808742Y679277D01*
Y675407D01*
X796068Y662733D01*
X793235Y663492D01*
X793144Y663831D01*
X791974Y665859D01*
X791254Y666578D01*
Y669449D01*
X792674Y670870D01*
X793516Y672130D01*
X793812Y673616D01*
Y675288D01*
X823652Y705129D01*
X825930Y703814D01*
D02*
G37*
D15*
X784860Y660400D02*
X786804Y662344D01*
X789068Y650240D02*
X812627Y673798D01*
X780652Y650240D02*
X789068D01*
X786804Y670493D02*
X789927Y673616D01*
X812627Y673798D02*
Y679277D01*
X760332Y670560D02*
X780652Y650240D01*
X736904Y670560D02*
X760332D01*
X786804Y662344D02*
Y670493D01*
X789927Y673616D02*
Y676897D01*
X812627Y679277D02*
X834390Y701040D01*
X789927Y676897D02*
X828040Y715010D01*
X1226820D01*
X717550Y793750D02*
X797747Y873948D01*
X717550Y759460D02*
Y793750D01*
X1224280Y774700D02*
X1283970Y834390D01*
X1276350Y895046D02*
X1283970Y887426D01*
Y834390D02*
Y887426D01*
X725474Y659130D02*
X736904Y670560D01*
X695960Y659130D02*
X725474D01*
X1210310Y797590D02*
X1211580Y798860D01*
X753140Y797590D02*
X1210310D01*
X1220500Y798860D02*
X1221740Y800100D01*
X1211580Y798860D02*
X1220500D01*
X753110Y797560D02*
X753140Y797590D01*
X826770Y889000D02*
X829310Y891540D01*
X826770Y889000D02*
Y891540D01*
X1236771Y873760D02*
X1239520D01*
X1229151Y866140D02*
X1236771Y873760D01*
X1210310Y866140D02*
X1229151D01*
X1172210D02*
X1210310D01*
X1148080Y890270D02*
X1172210Y866140D01*
X1301750Y800100D02*
Y957580D01*
X1272540Y770890D02*
X1301750Y800100D01*
X1276350Y895046D02*
Y909320D01*
X1273810Y726440D02*
X1294130D01*
X1261110Y713740D02*
X1273810Y726440D01*
X1207770Y1037590D02*
X1221740D01*
X1195070Y1024890D02*
X1207770Y1037590D01*
D31*
X693250Y1031040D02*
D03*
D32*
Y1006040D02*
D03*
D34*
X1304290Y1033780D02*
D03*
X698500Y613410D02*
D03*
D35*
X1236980Y612140D02*
D03*
X784860Y660400D02*
D03*
X834390Y701040D02*
D03*
X1226820Y715010D02*
D03*
X810260Y727710D02*
D03*
X717550Y759460D02*
D03*
X952500Y782320D02*
D03*
X1273810Y878840D02*
D03*
X774700Y875030D02*
D03*
X695960Y659130D02*
D03*
X840740Y632460D02*
D03*
X1221740Y800100D02*
D03*
X1224280Y774700D02*
D03*
X975360Y631190D02*
D03*
X741680Y868680D02*
D03*
X797747Y873948D02*
D03*
X753110Y797560D02*
D03*
X826770Y891540D02*
D03*
X716280Y648970D02*
D03*
X1239520Y873760D02*
D03*
X1148080Y890270D02*
D03*
X1210310Y866140D02*
D03*
X1272540Y770890D02*
D03*
X1301750Y957580D02*
D03*
X1276350Y909320D02*
D03*
X1294130Y726440D02*
D03*
X1261110Y713740D02*
D03*
X1243330Y727710D02*
D03*
X1318260Y748030D02*
D03*
X1315720Y820420D02*
D03*
X1221740Y1037590D02*
D03*
X1195070Y1024890D02*
D03*
X1130300Y814070D02*
D03*
X1074420Y781050D02*
D03*
X1073040Y991870D02*
D03*
X947420Y988060D02*
D03*
M02*
