G04*
G04 #@! TF.GenerationSoftware,Altium Limited,Altium Designer,25.0.2 (28)*
G04*
G04 Layer_Color=65535*
%FSLAX44Y44*%
%MOMM*%
G71*
G04*
G04 #@! TF.SameCoordinates,877775E4-4AF8-4732-A6CF-0C93CC7184C8*
G04*
G04*
G04 #@! TF.FilePolarity,Positive*
G04*
G01*
G75*
%ADD10C,0.2000*%
%ADD11C,0.2500*%
%ADD12C,0.6000*%
%ADD13C,0.7500*%
%ADD14C,0.1000*%
%ADD15C,0.2540*%
D10*
X920020Y608470D02*
G03*
X922020Y608470I1000J0D01*
G01*
D02*
G03*
X920020Y608470I-1000J0D01*
G01*
X1078230Y607200D02*
G03*
X1076230Y607200I-1000J0D01*
G01*
D02*
G03*
X1078230Y607200I1000J0D01*
G01*
X909470Y792930D02*
G03*
X909470Y790930I0J-1000D01*
G01*
D02*
G03*
X909470Y792930I0J1000D01*
G01*
X1033780D02*
G03*
X1033780Y790930I0J-1000D01*
G01*
D02*
G03*
X1033780Y792930I0J1000D01*
G01*
X669750Y981540D02*
X727250D01*
Y1055540D01*
X669750D02*
X727250D01*
X669750Y981540D02*
Y1055540D01*
X1207200Y680790D02*
X1294700D01*
X1207200Y648790D02*
X1294700D01*
Y680790D01*
X1207200Y648790D02*
Y680790D01*
X705700Y673990D02*
X716700D01*
X705700Y689990D02*
X716700D01*
X715090Y717930D02*
X725090D01*
X715090Y701930D02*
X725090D01*
X767160Y717930D02*
X777160D01*
X767160Y701930D02*
X777160D01*
X741110Y640590D02*
Y672590D01*
X828610Y640590D02*
Y672590D01*
X741110Y640590D02*
X828610D01*
X741110Y672590D02*
X828610D01*
X1267040Y604140D02*
X1278040D01*
X1267040Y620140D02*
X1278040D01*
X1220050Y837820D02*
X1231050D01*
X1220050Y853820D02*
X1231050D01*
X1303450Y945950D02*
Y984450D01*
X1198450Y945950D02*
Y984450D01*
X1303450D01*
X1198450Y945950D02*
X1303450D01*
X1200990Y759590D02*
X1305990D01*
X1200990Y807590D02*
X1305990D01*
X1200990Y759590D02*
Y807590D01*
X1305990Y759590D02*
Y807590D01*
X1237830Y905890D02*
X1248830D01*
X1237830Y889890D02*
X1248830D01*
X806030Y595250D02*
X817030D01*
X806030Y611250D02*
X817030D01*
X756500Y837820D02*
X767500D01*
X756500Y853820D02*
X767500D01*
X837360Y938620D02*
Y977120D01*
X732360Y938620D02*
Y977120D01*
X837360D01*
X732360Y938620D02*
X837360D01*
X731090Y762130D02*
X836090D01*
X731090Y810130D02*
X836090D01*
X731090Y762130D02*
Y810130D01*
X836090Y762130D02*
Y810130D01*
X773010Y903350D02*
X784010D01*
X773010Y887350D02*
X784010D01*
X1016890Y1011000D02*
Y1021000D01*
X1032890Y1011000D02*
Y1021000D01*
X1043560Y1011000D02*
Y1021000D01*
X1059560Y1011000D02*
Y1021000D01*
X1034160Y759540D02*
Y769540D01*
X1018160Y759540D02*
Y769540D01*
X1060830Y759540D02*
Y769540D01*
X1044830Y759540D02*
Y769540D01*
X1104010Y759010D02*
Y769010D01*
X1088010Y759010D02*
Y769010D01*
X1114680Y1004650D02*
Y1014650D01*
X1130680Y1004650D02*
Y1014650D01*
X1089280Y1004650D02*
Y1014650D01*
X1105280Y1004650D02*
Y1014650D01*
X886080Y1007190D02*
Y1017190D01*
X902080Y1007190D02*
Y1017190D01*
X919100Y1009200D02*
Y1019200D01*
X935100Y1009200D02*
Y1019200D01*
X961010Y1011000D02*
Y1021000D01*
X977010Y1011000D02*
Y1021000D01*
X987680Y1011000D02*
Y1021000D01*
X1003680Y1011000D02*
Y1021000D01*
X982090Y758270D02*
Y768270D01*
X966090Y758270D02*
Y768270D01*
X938910Y759010D02*
Y769010D01*
X922910Y759010D02*
Y769010D01*
X910970Y759010D02*
Y769010D01*
X894970Y759010D02*
Y769010D01*
X958470Y661750D02*
Y671750D01*
X974470Y661750D02*
Y671750D01*
X1020700Y661750D02*
Y671750D01*
X1036700Y661750D02*
Y671750D01*
D11*
X694500Y974790D02*
G03*
X694500Y974790I-1250J0D01*
G01*
X1298800Y692040D02*
G03*
X1298800Y692040I-1250J0D01*
G01*
X832710Y683840D02*
G03*
X832710Y683840I-1250J0D01*
G01*
X1199250Y931200D02*
G03*
X1199250Y931200I-1250J0D01*
G01*
X1201790Y747340D02*
G03*
X1201790Y747340I-1250J0D01*
G01*
X733160Y923870D02*
G03*
X733160Y923870I-1250J0D01*
G01*
X731890Y749880D02*
G03*
X731890Y749880I-1250J0D01*
G01*
D12*
X1287950Y670790D02*
G03*
X1287950Y670790I-3000J0D01*
G01*
X821860Y662590D02*
G03*
X821860Y662590I-3000J0D01*
G01*
X1211450Y955950D02*
G03*
X1211450Y955950I-3000J0D01*
G01*
X1213990Y769590D02*
G03*
X1213990Y769590I-3000J0D01*
G01*
X745360Y948620D02*
G03*
X745360Y948620I-3000J0D01*
G01*
X744090Y772130D02*
G03*
X744090Y772130I-3000J0D01*
G01*
D13*
X989876Y833590D02*
G03*
X989876Y833590I-496J0D01*
G01*
X1114186D02*
G03*
X1114186Y833590I-496J0D01*
G01*
X922070Y831050D02*
X972810Y831570D01*
X915720Y839940D02*
Y877740D01*
X979220Y839940D02*
Y877740D01*
X922070Y885660D02*
X971600D01*
X915720Y896120D02*
Y933920D01*
X979110Y896670D02*
Y934470D01*
X922070Y940270D02*
X970710Y940770D01*
X1046380Y831050D02*
X1097120Y831570D01*
X1040030Y839940D02*
Y877740D01*
X1103530Y839940D02*
Y877740D01*
X1046380Y885660D02*
X1095910D01*
X1040030Y896120D02*
Y933920D01*
X1103420Y896670D02*
Y934470D01*
X1046380Y940270D02*
X1095020Y940770D01*
D14*
X939520Y622470D02*
Y682470D01*
X904520Y622470D02*
Y682470D01*
X1060730Y621200D02*
Y681200D01*
X1095730Y621200D02*
Y681200D01*
X898470Y822750D02*
Y951930D01*
X996470Y821930D02*
Y951930D01*
X1022780Y822750D02*
Y951930D01*
X1120780Y821930D02*
Y951930D01*
D15*
X698505Y796290D02*
X713740D01*
X708662D01*
X698505Y806447D01*
X706123Y798829D01*
X713740Y806447D01*
Y814064D02*
Y819143D01*
X711201Y821682D01*
X706123D01*
X703583Y819143D01*
Y814064D01*
X706123Y811525D01*
X711201D01*
X713740Y814064D01*
Y829299D02*
Y834378D01*
X711201Y836917D01*
X706123D01*
X703583Y834378D01*
Y829299D01*
X706123Y826760D01*
X711201D01*
X713740Y829299D01*
Y841995D02*
X698505D01*
X708662D02*
X703583Y849613D01*
X708662Y841995D02*
X713740Y849613D01*
X703583Y857230D02*
X711201D01*
X713740Y859770D01*
X711201Y862309D01*
X713740Y864848D01*
X711201Y867387D01*
X703583D01*
X713740Y880083D02*
Y875005D01*
X711201Y872465D01*
X706123D01*
X703583Y875005D01*
Y880083D01*
X706123Y882622D01*
X708662D01*
Y872465D01*
X713740Y887700D02*
X698505D01*
X708662D02*
X703583Y895318D01*
X708662Y887700D02*
X713740Y895318D01*
Y902935D02*
X698505D01*
X708662D02*
X703583Y910553D01*
X708662Y902935D02*
X713740Y910553D01*
Y925788D02*
Y920710D01*
X711201Y918171D01*
X706123D01*
X703583Y920710D01*
Y925788D01*
X706123Y928327D01*
X708662D01*
Y918171D01*
X703583Y933406D02*
X713740D01*
X708662D01*
X706123Y935945D01*
X703583Y938484D01*
Y941023D01*
X670567Y760727D02*
Y750570D01*
X678184D01*
Y755648D01*
Y750570D01*
X685802D01*
X675645Y768344D02*
Y773423D01*
X678184Y775962D01*
X685802D01*
Y768344D01*
X683262Y765805D01*
X680723Y768344D01*
Y775962D01*
X670567Y781040D02*
X685802D01*
Y788658D01*
X683262Y791197D01*
X680723D01*
X678184D01*
X675645Y788658D01*
Y781040D01*
X685802Y796275D02*
Y801354D01*
Y798814D01*
X675645D01*
Y796275D01*
Y811510D02*
Y816589D01*
X678184Y819128D01*
X685802D01*
Y811510D01*
X683262Y808971D01*
X680723Y811510D01*
Y819128D01*
X685802Y824206D02*
X675645D01*
Y831824D01*
X678184Y834363D01*
X685802D01*
X670567Y864833D02*
Y854676D01*
X685802D01*
Y864833D01*
X678184Y854676D02*
Y859755D01*
X690880Y869911D02*
X675645D01*
Y877529D01*
X678184Y880068D01*
X683262D01*
X685802Y877529D01*
Y869911D01*
X690880Y885146D02*
X675645D01*
Y892764D01*
X678184Y895303D01*
X683262D01*
X685802Y892764D01*
Y885146D01*
Y907999D02*
Y902921D01*
X683262Y900381D01*
X678184D01*
X675645Y902921D01*
Y907999D01*
X678184Y910538D01*
X680723D01*
Y900381D01*
X685802Y915617D02*
X675645D01*
Y923234D01*
X678184Y925773D01*
X685802D01*
Y930852D02*
Y938469D01*
X683262Y941008D01*
X680723Y938469D01*
Y933391D01*
X678184Y930852D01*
X675645Y933391D01*
Y941008D01*
X742950Y1051557D02*
X737872D01*
X740411D01*
Y1038862D01*
X737872Y1036322D01*
X735332D01*
X732793Y1038862D01*
X748028Y1036322D02*
X753107D01*
X750568D01*
Y1051557D01*
X748028Y1049018D01*
X836933Y647704D02*
X849628D01*
X852168Y650243D01*
Y655322D01*
X849628Y657861D01*
X836933D01*
X839472Y662939D02*
X836933Y665478D01*
Y670557D01*
X839472Y673096D01*
X842011D01*
X844550Y670557D01*
X847089Y673096D01*
X849628D01*
X852168Y670557D01*
Y665478D01*
X849628Y662939D01*
X847089D01*
X844550Y665478D01*
X842011Y662939D01*
X839472D01*
X844550Y665478D02*
Y670557D01*
X1181103Y652784D02*
X1193798D01*
X1196338Y655323D01*
Y660402D01*
X1193798Y662941D01*
X1181103D01*
Y678176D02*
X1183642Y673098D01*
X1188720Y668019D01*
X1193798D01*
X1196338Y670558D01*
Y675637D01*
X1193798Y678176D01*
X1191259D01*
X1188720Y675637D01*
Y668019D01*
X1229362Y953774D02*
X1242058D01*
X1244597Y956313D01*
Y961392D01*
X1242058Y963931D01*
X1229362D01*
X1244597Y976627D02*
X1229362D01*
X1236980Y969009D01*
Y979166D01*
X1177292Y765814D02*
X1189988D01*
X1192527Y768353D01*
Y773432D01*
X1189988Y775971D01*
X1177292D01*
X1179832Y781049D02*
X1177292Y783588D01*
Y788667D01*
X1179832Y791206D01*
X1182371D01*
X1184910Y788667D01*
Y786127D01*
Y788667D01*
X1187449Y791206D01*
X1189988D01*
X1192527Y788667D01*
Y783588D01*
X1189988Y781049D01*
X759463Y946154D02*
X772158D01*
X774697Y948693D01*
Y953772D01*
X772158Y956311D01*
X759463D01*
X774697Y971546D02*
Y961389D01*
X764541Y971546D01*
X762002D01*
X759463Y969007D01*
Y963928D01*
X762002Y961389D01*
X755652Y777243D02*
X768348D01*
X770888Y779782D01*
Y784861D01*
X768348Y787400D01*
X755652D01*
X770888Y792478D02*
Y797557D01*
Y795018D01*
X755652D01*
X758192Y792478D01*
X1075691Y708658D02*
X1073152Y711198D01*
X1068073D01*
X1065534Y708658D01*
Y706119D01*
X1068073Y703580D01*
X1073152D01*
X1075691Y701041D01*
Y698502D01*
X1073152Y695963D01*
X1068073D01*
X1065534Y698502D01*
X1090926Y695963D02*
X1080769D01*
X1090926Y706119D01*
Y708658D01*
X1088387Y711198D01*
X1083308D01*
X1080769Y708658D01*
X922020Y711198D02*
X919481Y713737D01*
X914402D01*
X911863Y711198D01*
Y708659D01*
X914402Y706120D01*
X919481D01*
X922020Y703581D01*
Y701042D01*
X919481Y698503D01*
X914402D01*
X911863Y701042D01*
X927098Y698503D02*
X932177D01*
X929638D01*
Y713737D01*
X927098Y711198D01*
X1019556Y697738D02*
Y705356D01*
X1023365D01*
X1024634Y704086D01*
Y701547D01*
X1023365Y700277D01*
X1019556D01*
X1022095D02*
X1024634Y697738D01*
X1032252D02*
X1027173D01*
X1032252Y702816D01*
Y704086D01*
X1030982Y705356D01*
X1028443D01*
X1027173Y704086D01*
X1034791D02*
X1036061Y705356D01*
X1038600D01*
X1039869Y704086D01*
Y699008D01*
X1038600Y697738D01*
X1036061D01*
X1034791Y699008D01*
Y704086D01*
X957326Y697738D02*
Y705356D01*
X961135D01*
X962404Y704086D01*
Y701547D01*
X961135Y700277D01*
X957326D01*
X959865D02*
X962404Y697738D01*
X964943D02*
X967483D01*
X966213D01*
Y705356D01*
X964943Y704086D01*
X971292Y699008D02*
X972561Y697738D01*
X975100D01*
X976370Y699008D01*
Y704086D01*
X975100Y705356D01*
X972561D01*
X971292Y704086D01*
Y702816D01*
X972561Y701547D01*
X976370D01*
X751208Y723901D02*
Y731519D01*
X755017D01*
X756286Y730249D01*
Y727710D01*
X755017Y726440D01*
X751208D01*
X753747D02*
X756286Y723901D01*
X758826D02*
X761365D01*
X760095D01*
Y731519D01*
X758826Y730249D01*
X765174D02*
X766443Y731519D01*
X768982D01*
X770252Y730249D01*
Y728980D01*
X768982Y727710D01*
X770252Y726440D01*
Y725171D01*
X768982Y723901D01*
X766443D01*
X765174Y725171D01*
Y726440D01*
X766443Y727710D01*
X765174Y728980D01*
Y730249D01*
X766443Y727710D02*
X768982D01*
X699138Y723901D02*
Y731519D01*
X702947D01*
X704216Y730249D01*
Y727710D01*
X702947Y726440D01*
X699138D01*
X701677D02*
X704216Y723901D01*
X706756D02*
X709295D01*
X708025D01*
Y731519D01*
X706756Y730249D01*
X713104Y731519D02*
X718182D01*
Y730249D01*
X713104Y725171D01*
Y723901D01*
X1015368Y1041401D02*
Y1049019D01*
X1019177D01*
X1020446Y1047749D01*
Y1045210D01*
X1019177Y1043940D01*
X1015368D01*
X1017907D02*
X1020446Y1041401D01*
X1022986D02*
X1025525D01*
X1024255D01*
Y1049019D01*
X1022986Y1047749D01*
X1033142Y1041401D02*
Y1049019D01*
X1029334Y1045210D01*
X1034412D01*
X1042038Y1041401D02*
Y1049019D01*
X1045847D01*
X1047116Y1047749D01*
Y1045210D01*
X1045847Y1043940D01*
X1042038D01*
X1044577D02*
X1047116Y1041401D01*
X1049656D02*
X1052195D01*
X1050925D01*
Y1049019D01*
X1049656Y1047749D01*
X1056004D02*
X1057273Y1049019D01*
X1059812D01*
X1061082Y1047749D01*
Y1046480D01*
X1059812Y1045210D01*
X1058543D01*
X1059812D01*
X1061082Y1043940D01*
Y1042671D01*
X1059812Y1041401D01*
X1057273D01*
X1056004Y1042671D01*
X1016638Y731521D02*
Y739139D01*
X1020447D01*
X1021716Y737869D01*
Y735330D01*
X1020447Y734060D01*
X1016638D01*
X1019177D02*
X1021716Y731521D01*
X1024256D02*
X1026795D01*
X1025525D01*
Y739139D01*
X1024256Y737869D01*
X1035682Y731521D02*
X1030604D01*
X1035682Y736600D01*
Y737869D01*
X1034412Y739139D01*
X1031873D01*
X1030604Y737869D01*
X1043308Y731521D02*
Y739139D01*
X1047116D01*
X1048386Y737869D01*
Y735330D01*
X1047116Y734060D01*
X1043308D01*
X1045847D02*
X1048386Y731521D01*
X1050925D02*
X1053464D01*
X1052195D01*
Y739139D01*
X1050925Y737869D01*
X1057273Y731521D02*
X1059812D01*
X1058543D01*
Y739139D01*
X1057273Y737869D01*
X1086488Y731521D02*
Y739139D01*
X1090297D01*
X1091566Y737869D01*
Y735330D01*
X1090297Y734060D01*
X1086488D01*
X1089027D02*
X1091566Y731521D01*
X1094106D02*
X1096645D01*
X1095375D01*
Y739139D01*
X1094106Y737869D01*
X1100454D02*
X1101723Y739139D01*
X1104262D01*
X1105532Y737869D01*
Y732791D01*
X1104262Y731521D01*
X1101723D01*
X1100454Y732791D01*
Y737869D01*
X1113792Y1035051D02*
Y1042669D01*
X1117601D01*
X1118870Y1041399D01*
Y1038860D01*
X1117601Y1037590D01*
X1113792D01*
X1116331D02*
X1118870Y1035051D01*
X1121410Y1036321D02*
X1122679Y1035051D01*
X1125218D01*
X1126488Y1036321D01*
Y1041399D01*
X1125218Y1042669D01*
X1122679D01*
X1121410Y1041399D01*
Y1040130D01*
X1122679Y1038860D01*
X1126488D01*
X1088392Y1035051D02*
Y1042669D01*
X1092201D01*
X1093470Y1041399D01*
Y1038860D01*
X1092201Y1037590D01*
X1088392D01*
X1090931D02*
X1093470Y1035051D01*
X1096010Y1041399D02*
X1097279Y1042669D01*
X1099818D01*
X1101088Y1041399D01*
Y1040130D01*
X1099818Y1038860D01*
X1101088Y1037590D01*
Y1036321D01*
X1099818Y1035051D01*
X1097279D01*
X1096010Y1036321D01*
Y1037590D01*
X1097279Y1038860D01*
X1096010Y1040130D01*
Y1041399D01*
X1097279Y1038860D02*
X1099818D01*
X885192Y1037061D02*
Y1044679D01*
X889001D01*
X890270Y1043409D01*
Y1040870D01*
X889001Y1039600D01*
X885192D01*
X887731D02*
X890270Y1037061D01*
X892810Y1044679D02*
X897888D01*
Y1043409D01*
X892810Y1038331D01*
Y1037061D01*
X918212Y1039601D02*
Y1047219D01*
X922021D01*
X923290Y1045949D01*
Y1043410D01*
X922021Y1042140D01*
X918212D01*
X920751D02*
X923290Y1039601D01*
X930908Y1047219D02*
X928369Y1045949D01*
X925830Y1043410D01*
Y1040871D01*
X927099Y1039601D01*
X929638D01*
X930908Y1040871D01*
Y1042140D01*
X929638Y1043410D01*
X925830D01*
X896622Y731521D02*
Y739139D01*
X900431D01*
X901700Y737869D01*
Y735330D01*
X900431Y734060D01*
X896622D01*
X899161D02*
X901700Y731521D01*
X909318Y739139D02*
X904240D01*
Y735330D01*
X906779Y736600D01*
X908048D01*
X909318Y735330D01*
Y732791D01*
X908048Y731521D01*
X905509D01*
X904240Y732791D01*
X924562Y731521D02*
Y739139D01*
X928371D01*
X929640Y737869D01*
Y735330D01*
X928371Y734060D01*
X924562D01*
X927101D02*
X929640Y731521D01*
X935988D02*
Y739139D01*
X932180Y735330D01*
X937258D01*
X967742Y730781D02*
Y738399D01*
X971551D01*
X972820Y737129D01*
Y734590D01*
X971551Y733320D01*
X967742D01*
X970281D02*
X972820Y730781D01*
X975360Y737129D02*
X976629Y738399D01*
X979168D01*
X980438Y737129D01*
Y735860D01*
X979168Y734590D01*
X977899D01*
X979168D01*
X980438Y733320D01*
Y732051D01*
X979168Y730781D01*
X976629D01*
X975360Y732051D01*
X986792Y1041401D02*
Y1049019D01*
X990601D01*
X991870Y1047749D01*
Y1045210D01*
X990601Y1043940D01*
X986792D01*
X989331D02*
X991870Y1041401D01*
X999488D02*
X994410D01*
X999488Y1046480D01*
Y1047749D01*
X998218Y1049019D01*
X995679D01*
X994410Y1047749D01*
X960122Y1041401D02*
Y1049019D01*
X963930D01*
X965200Y1047749D01*
Y1045210D01*
X963930Y1043940D01*
X960122D01*
X962661D02*
X965200Y1041401D01*
X967739D02*
X970278D01*
X969009D01*
Y1049019D01*
X967739Y1047749D01*
X1051567Y924557D02*
Y909323D01*
X1059184D01*
X1061723Y911862D01*
Y922018D01*
X1059184Y924557D01*
X1051567D01*
X1076958Y922018D02*
X1074419Y924557D01*
X1069341D01*
X1066802Y922018D01*
Y919479D01*
X1069341Y916940D01*
X1074419D01*
X1076958Y914401D01*
Y911862D01*
X1074419Y909323D01*
X1069341D01*
X1066802Y911862D01*
X1092193Y909323D02*
X1082037D01*
X1092193Y919479D01*
Y922018D01*
X1089654Y924557D01*
X1084576D01*
X1082037Y922018D01*
X929646Y924557D02*
Y909323D01*
X937263D01*
X939802Y911862D01*
Y922018D01*
X937263Y924557D01*
X929646D01*
X955038Y922018D02*
X952498Y924557D01*
X947420D01*
X944881Y922018D01*
Y919479D01*
X947420Y916940D01*
X952498D01*
X955038Y914401D01*
Y911862D01*
X952498Y909323D01*
X947420D01*
X944881Y911862D01*
X960116Y909323D02*
X965194D01*
X962655D01*
Y924557D01*
X960116Y922018D01*
X849631Y608328D02*
X847092Y610868D01*
X842013D01*
X839474Y608328D01*
Y598172D01*
X842013Y595633D01*
X847092D01*
X849631Y598172D01*
X854709Y610868D02*
X864866D01*
Y608328D01*
X854709Y598172D01*
Y595633D01*
X1311911Y617218D02*
X1309372Y619757D01*
X1304293D01*
X1301754Y617218D01*
Y607062D01*
X1304293Y604523D01*
X1309372D01*
X1311911Y607062D01*
X1327146Y619757D02*
X1322068Y617218D01*
X1316989Y612140D01*
Y607062D01*
X1319528Y604523D01*
X1324607D01*
X1327146Y607062D01*
Y609601D01*
X1324607Y612140D01*
X1316989D01*
X1281431Y904238D02*
X1278892Y906777D01*
X1273813D01*
X1271274Y904238D01*
Y894082D01*
X1273813Y891543D01*
X1278892D01*
X1281431Y894082D01*
X1296666Y906777D02*
X1286509D01*
Y899160D01*
X1291588Y901699D01*
X1294127D01*
X1296666Y899160D01*
Y894082D01*
X1294127Y891543D01*
X1289048D01*
X1286509Y894082D01*
X1268731Y852168D02*
X1266192Y854707D01*
X1261113D01*
X1258574Y852168D01*
Y842012D01*
X1261113Y839473D01*
X1266192D01*
X1268731Y842012D01*
X1281427Y839473D02*
Y854707D01*
X1273809Y847090D01*
X1283966D01*
X802641Y852168D02*
X800102Y854707D01*
X795023D01*
X792484Y852168D01*
Y842012D01*
X795023Y839473D01*
X800102D01*
X802641Y842012D01*
X807719Y852168D02*
X810258Y854707D01*
X815337D01*
X817876Y852168D01*
Y849629D01*
X815337Y847090D01*
X812797D01*
X815337D01*
X817876Y844551D01*
Y842012D01*
X815337Y839473D01*
X810258D01*
X807719Y842012D01*
X735331Y900428D02*
X732792Y902968D01*
X727713D01*
X725174Y900428D01*
Y890272D01*
X727713Y887732D01*
X732792D01*
X735331Y890272D01*
X750566Y887732D02*
X740409D01*
X750566Y897889D01*
Y900428D01*
X748027Y902968D01*
X742948D01*
X740409Y900428D01*
X679450Y683259D02*
X678180Y684529D01*
X675641D01*
X674372Y683259D01*
Y678181D01*
X675641Y676911D01*
X678180D01*
X679450Y678181D01*
X681989Y676911D02*
X684528D01*
X683259D01*
Y684529D01*
X681989Y683259D01*
M02*
